<?xml version="1.0" encoding="UTF-8"?><svg id="Camada_1" xmlns="http://www.w3.org/2000/svg" viewBox="0 0 312.85 312.85"><defs><style>.cls-1{fill:#fff;}.cls-1,.cls-2,.cls-3{stroke:#000;}.cls-1,.cls-2,.cls-3,.cls-4{stroke-miterlimit:10;stroke-width:4px;}.cls-2{fill:#f74843;}.cls-3,.cls-4{fill:none;}.cls-4{stroke:#3a4157;}</style></defs><circle class="cls-2" cx="156.43" cy="156.43" r="121.01"/><circle class="cls-4" cx="156.43" cy="156.43" r="154.43"/><g><circle class="cls-3" cx="292.41" cy="156.43" r="7.49"/><circle class="cls-3" cx="20.44" cy="156.43" r="7.49"/></g><g><circle class="cls-3" cx="156.35" cy="292.34" r="7.49"/><circle class="cls-3" cx="156.35" cy="20.36" r="7.49"/></g><path class="cls-1" d="M214.18,134.45c-2.64-7.13-6.5-13.47-11.22-18.89l9.17-9.77-22.9-5.37-22.91-5.37,.08,.25,6.72,22.27,.13,.45,6.66,22.07,9.23-9.83c2.59,3.29,4.73,7.02,6.26,11.15,7.91,21.31-3,45.07-24.3,52.98-21.31,7.91-45.08-3-52.99-24.31-7.91-21.31,3-45.07,24.3-52.98,.14-.05,.28-.08,.42-.13l-5.4-19.31c-.66,.22-1.32,.44-1.98,.68-31.66,11.74-47.85,47.06-36.11,78.71,11.75,31.66,47.06,47.86,78.72,36.11,31.66-11.74,47.86-47.06,36.11-78.71Z"/></svg>