<?xml version="1.0" encoding="UTF-8"?><svg id="Camada_1" xmlns="http://www.w3.org/2000/svg" viewBox="0 0 383 348"><defs><style>.cls-1{fill:none;stroke:#f74843;stroke-miterlimit:10;stroke-width:30px;}.cls-2{fill:#f74843;}.cls-3{fill:#fff;}</style></defs><g><ellipse class="cls-3" cx="191.89" cy="173.27" rx="148.89" ry="149.27"/><path class="cls-2" d="M191.89,33c37.36,0,72.48,14.59,98.9,41.07,26.43,26.5,40.99,61.73,40.99,99.2s-14.56,72.71-40.99,99.2c-26.42,26.48-61.54,41.07-98.9,41.07s-72.48-14.59-98.9-41.07c-26.43-26.5-40.99-61.73-40.99-99.2s14.56-72.71,40.99-99.2c26.42-26.48,61.54-41.07,98.9-41.07m0-18C104.69,15,34,85.86,34,173.27s70.69,158.27,157.89,158.27,157.89-70.86,157.89-158.27S279.09,15,191.89,15h0Z"/></g><g><circle class="cls-3" cx="191.5" cy="173.5" r="106.5"/><path class="cls-2" d="M191.5,76c53.76,0,97.5,43.74,97.5,97.5s-43.74,97.5-97.5,97.5-97.5-43.74-97.5-97.5,43.74-97.5,97.5-97.5m0-18c-63.79,0-115.5,51.71-115.5,115.5s51.71,115.5,115.5,115.5,115.5-51.71,115.5-115.5-51.71-115.5-115.5-115.5h0Z"/></g><line class="cls-1" x1="40" y1="174" x2="344" y2="174"/><line class="cls-1" x1="266" y1="43" x2="117" y2="312"/><line class="cls-1" x1="117" y1="42" x2="266" y2="305"/><ellipse class="cls-2" cx="191.37" cy="174.42" rx="34.63" ry="34.44"/><rect class="cls-3" x="176" y="159" width="30" height="30"/><g><circle class="cls-2" cx="33.5" cy="177.5" r="33"/><path class="cls-2" d="M33.5,145c17.92,0,32.5,14.58,32.5,32.5s-14.58,32.5-32.5,32.5S1,195.42,1,177.5s14.58-32.5,32.5-32.5m0-1c-18.5,0-33.5,15-33.5,33.5s15,33.5,33.5,33.5,33.5-15,33.5-33.5-15-33.5-33.5-33.5h0Z"/></g><g><circle class="cls-2" cx="271.5" cy="314.5" r="33"/><path class="cls-2" d="M271.5,282c17.92,0,32.5,14.58,32.5,32.5s-14.58,32.5-32.5,32.5-32.5-14.58-32.5-32.5,14.58-32.5,32.5-32.5m0-1c-18.5,0-33.5,15-33.5,33.5s15,33.5,33.5,33.5,33.5-15,33.5-33.5-15-33.5-33.5-33.5h0Z"/></g><g><circle class="cls-2" cx="349.5" cy="173.5" r="33"/><path class="cls-2" d="M349.5,141c17.92,0,32.5,14.58,32.5,32.5s-14.58,32.5-32.5,32.5-32.5-14.58-32.5-32.5,14.58-32.5,32.5-32.5m0-1c-18.5,0-33.5,15-33.5,33.5s15,33.5,33.5,33.5,33.5-15,33.5-33.5-15-33.5-33.5-33.5h0Z"/></g><g><circle class="cls-2" cx="112.5" cy="314.5" r="33"/><path class="cls-2" d="M112.5,282c17.92,0,32.5,14.58,32.5,32.5s-14.58,32.5-32.5,32.5-32.5-14.58-32.5-32.5,14.58-32.5,32.5-32.5m0-1c-18.5,0-33.5,15-33.5,33.5s15,33.5,33.5,33.5,33.5-15,33.5-33.5-15-33.5-33.5-33.5h0Z"/></g><g><circle class="cls-2" cx="112.5" cy="33.5" r="33"/><path class="cls-2" d="M112.5,1c17.92,0,32.5,14.58,32.5,32.5s-14.58,32.5-32.5,32.5-32.5-14.58-32.5-32.5S94.58,1,112.5,1m0-1c-18.5,0-33.5,15-33.5,33.5s15,33.5,33.5,33.5,33.5-15,33.5-33.5S131,0,112.5,0h0Z"/></g><g><circle class="cls-2" cx="271.5" cy="33.5" r="33"/><path class="cls-2" d="M271.5,1c17.92,0,32.5,14.58,32.5,32.5s-14.58,32.5-32.5,32.5-32.5-14.58-32.5-32.5S253.58,1,271.5,1m0-1c-18.5,0-33.5,15-33.5,33.5s15,33.5,33.5,33.5,33.5-15,33.5-33.5S290,0,271.5,0h0Z"/></g></svg>